# xmcd CD database file
#
# Track frame offsets:
#	150
#	18638
#	39788
#	59338
#
# Disc length: 1049 seconds
#
# Revision: 1
# Processed by: cddbd v1.5.1PL0 Copyright (c) Steve Scherf et al.
# Submitted via: CDex 1.50
#
DISCID=29041704
DTITLE=sona - 会いたい
DYEAR=2004
DGENRE=Pop
TTITLE0=会いたい
TTITLE1=冬のヒカリ
TTITLE2=ハッピー・ドライブ
TTITLE3=はちみついろ
EXTD=YEAR: 2004
EXTT0=
EXTT1=
EXTT2=
EXTT3=
PLAYORDER=
